<svg aria-hidden="true" style="position: absolute; width: 0; height: 0; overflow: hidden;" version="1.1"
     xmlns="http://www.w3.org/2000/svg" xmlns:xlink="http://www.w3.org/1999/xlink">
  <defs>
    <symbol id="icon-eye-plus" viewBox="0 0 32 32">
      <path d="M32 4h-4v-4h-4v4h-4v4h4v4h4v-4h4z"></path>
      <path
        d="M26.996 13.938c0.576 0.64 1.1 1.329 1.563 2.062-1.197 1.891-2.79 3.498-4.67 4.697-2.362 1.507-5.090 2.303-7.889 2.303s-5.527-0.796-7.889-2.303c-1.88-1.199-3.473-2.805-4.67-4.697 1.197-1.891 2.79-3.498 4.67-4.697 0.122-0.078 0.246-0.154 0.371-0.228-0.311 0.854-0.482 1.776-0.482 2.737 0 4.418 3.582 8 8 8s8-3.582 8-8c0-0.022-0.001-0.043-0.001-0.065-3.415-0.879-5.947-3.957-5.998-7.635-0.657-0.074-1.325-0.113-2.001-0.113-6.979 0-13.028 4.064-16 10 2.972 5.936 9.021 10 16 10s13.027-4.064 16-10c-0.551-1.101-1.209-2.137-1.958-3.095-0.915 0.537-1.946 0.897-3.046 1.034zM13 10c1.657 0 3 1.343 3 3s-1.343 3-3 3-3-1.343-3-3 1.343-3 3-3z"></path>
    </symbol>
    <symbol id="icon-star-full" viewBox="0 0 32 32">
      <path
        d="M32 12.408l-11.056-1.607-4.944-10.018-4.944 10.018-11.056 1.607 8 7.798-1.889 11.011 9.889-5.199 9.889 5.199-1.889-11.011 8-7.798z"></path>
    </symbol>
    <symbol id="icon-instagram" viewBox="0 0 32 32">
      <path
        d="M16 2.881c4.275 0 4.781 0.019 6.462 0.094 1.563 0.069 2.406 0.331 2.969 0.55 0.744 0.288 1.281 0.638 1.837 1.194 0.563 0.563 0.906 1.094 1.2 1.838 0.219 0.563 0.481 1.412 0.55 2.969 0.075 1.688 0.094 2.194 0.094 6.463s-0.019 4.781-0.094 6.463c-0.069 1.563-0.331 2.406-0.55 2.969-0.288 0.744-0.637 1.281-1.194 1.837-0.563 0.563-1.094 0.906-1.837 1.2-0.563 0.219-1.413 0.481-2.969 0.55-1.688 0.075-2.194 0.094-6.463 0.094s-4.781-0.019-6.463-0.094c-1.563-0.069-2.406-0.331-2.969-0.55-0.744-0.288-1.281-0.637-1.838-1.194-0.563-0.563-0.906-1.094-1.2-1.837-0.219-0.563-0.481-1.413-0.55-2.969-0.075-1.688-0.094-2.194-0.094-6.463s0.019-4.781 0.094-6.463c0.069-1.563 0.331-2.406 0.55-2.969 0.288-0.744 0.638-1.281 1.194-1.838 0.563-0.563 1.094-0.906 1.838-1.2 0.563-0.219 1.412-0.481 2.969-0.55 1.681-0.075 2.188-0.094 6.463-0.094zM16 0c-4.344 0-4.887 0.019-6.594 0.094-1.7 0.075-2.869 0.35-3.881 0.744-1.056 0.412-1.95 0.956-2.837 1.85-0.894 0.888-1.438 1.781-1.85 2.831-0.394 1.019-0.669 2.181-0.744 3.881-0.075 1.713-0.094 2.256-0.094 6.6s0.019 4.887 0.094 6.594c0.075 1.7 0.35 2.869 0.744 3.881 0.413 1.056 0.956 1.95 1.85 2.837 0.887 0.887 1.781 1.438 2.831 1.844 1.019 0.394 2.181 0.669 3.881 0.744 1.706 0.075 2.25 0.094 6.594 0.094s4.888-0.019 6.594-0.094c1.7-0.075 2.869-0.35 3.881-0.744 1.050-0.406 1.944-0.956 2.831-1.844s1.438-1.781 1.844-2.831c0.394-1.019 0.669-2.181 0.744-3.881 0.075-1.706 0.094-2.25 0.094-6.594s-0.019-4.887-0.094-6.594c-0.075-1.7-0.35-2.869-0.744-3.881-0.394-1.063-0.938-1.956-1.831-2.844-0.887-0.887-1.781-1.438-2.831-1.844-1.019-0.394-2.181-0.669-3.881-0.744-1.712-0.081-2.256-0.1-6.6-0.1v0z"></path>
      <path
        d="M16 7.781c-4.537 0-8.219 3.681-8.219 8.219s3.681 8.219 8.219 8.219 8.219-3.681 8.219-8.219c0-4.537-3.681-8.219-8.219-8.219zM16 21.331c-2.944 0-5.331-2.387-5.331-5.331s2.387-5.331 5.331-5.331c2.944 0 5.331 2.387 5.331 5.331s-2.387 5.331-5.331 5.331z"></path>
      <path
        d="M26.462 7.456c0 1.060-0.859 1.919-1.919 1.919s-1.919-0.859-1.919-1.919c0-1.060 0.859-1.919 1.919-1.919s1.919 0.859 1.919 1.919z"></path>
    </symbol>
    <symbol id="icon-anchor" viewBox="0 0 32 32">
      <path
        d="M17,15l1.55,1.55c-0.96,1.69-3.33,3.04-5.55,3.37V11h3V9h-3V7.82C14.16,7.4,15,6.3,15,5c0-1.65-1.35-3-3-3S9,3.35,9,5 c0,1.3,0.84,2.4,2,2.82V9H8v2h3v8.92c-2.22-0.33-4.59-1.68-5.55-3.37L7,15l-4-3v3c0,3.88,4.92,7,9,7s9-3.12,9-7v-3L17,15z M12,4 c0.55,0,1,0.45,1,1s-0.45,1-1,1s-1-0.45-1-1S11.45,4,12,4z"/>
    </symbol>
    <symbol id="invisible_eye_icon" viewBox="0 0 24 24">
      <path fill-rule="evenodd"
            d="M15.5817018,10.217288 C15.8494088,10.754062 16,11.3594578 16,12 C16,14.209 14.209,16 12,16 C11.3594578,16 10.754062,15.8494088 10.217288,15.5817018 L8.48536364,17.3136262 C9.58485203,17.7588553 10.7733084,18 12,18 C15.857,18 19.336,15.616 20.86,12 C20.1808436,10.3885634 19.1134329,9.02179652 17.7973358,8.00165407 L15.5817018,10.217288 Z M19.2229364,6.57605345 C20.9352704,7.9668572 22.2593071,9.84134303 23,12 C21.4,16.663 17.078,20 12,20 C10.198616,20 8.49236889,19.5800637 6.9690243,18.8299656 L5.12132034,20.6776695 C4.73079605,21.0681938 4.09763107,21.0681938 3.70710678,20.6776695 C3.31658249,20.2871452 3.31658249,19.6539803 3.70710678,19.263456 L19.263456,3.70710678 C19.6539803,3.31658249 20.2871452,3.31658249 20.6776695,3.70710678 C21.0681938,4.09763107 21.0681938,4.73079605 20.6776695,5.12132034 L19.2229364,6.57605345 Z M5.12012808,15.0220075 L3.70481475,16.4373209 C2.5100928,15.194138 1.57764926,13.6834866 1,12 C2.6,7.337 6.922,4 12,4 C13.2450856,4 14.4447211,4.20061769 15.5699262,4.57220943 L13.9385597,6.20357596 C13.3087024,6.06978167 12.6598834,6 12,6 C8.143,6 4.664,8.384 3.14,12 C3.62148288,13.1424161 4.29810228,14.1618612 5.12012808,15.0220075 Z"/>
    </symbol>
    <symbol id="icon-date" viewBox="0 0 477.9 477.9">
      <path d="M119.5 0C110 0 102.4 7.6 102.4 17.1V51.2h34.1V17.1C136.5 7.6 128.9 0 119.5 0z"/>
      <path d="M358.4 0c-9.4 0-17.1 7.6-17.1 17.1V51.2h34.1V17.1C375.5 7.6 367.8 0 358.4 0z"/>
      <path
        d="M426.7 51.2h-51.2v68.3c0 9.4-7.6 17.1-17.1 17.1s-17.1-7.6-17.1-17.1V51.2h-204.8v68.3c0 9.4-7.6 17.1-17.1 17.1s-17.1-7.6-17.1-17.1V51.2H51.2C22.9 51.2 0 74.1 0 102.4v324.3c0 28.3 22.9 51.2 51.2 51.2h375.5c28.3 0 51.2-22.9 51.2-51.2V102.4C477.9 74.1 454.9 51.2 426.7 51.2zM443.7 426.7c0 9.4-7.6 17.1-17.1 17.1H51.2c-9.4 0-17.1-7.6-17.1-17.1V204.8h409.6V426.7z"/>
      <path
        d="M353.4 243.9c-6.7-6.7-17.5-6.7-24.1 0L204.8 368.4l-56.2-56.2c-6.7-6.7-17.5-6.7-24.1 0 -6.7 6.7-6.7 17.5 0 24.1l68.3 68.3c6.7 6.7 17.5 6.7 24.1 0L353.4 268.1C360.1 261.4 360.1 250.6 353.4 243.9z"/>
    </symbol>
  </defs>
</svg>

